<?xml version="1.0" encoding="utf-8"?>
<!-- Generator: Adobe Illustrator 18.0.0, SVG Export Plug-In . SVG Version: 6.00 Build 0)  -->
<!DOCTYPE svg PUBLIC "-//W3C//DTD SVG 1.1//EN" "http://www.w3.org/Graphics/SVG/1.1/DTD/svg11.dtd">
<svg version="1.1" id="Layer_1" xmlns="http://www.w3.org/2000/svg" xmlns:xlink="http://www.w3.org/1999/xlink" x="0px" y="0px"
	 viewBox="0 0 177 26.6" enable-background="new 0 0 177 26.6" xml:space="preserve">
<g>
	<path fill="#FFFFFF" d="M9.6,15.3H2v11.1H0V0.2h9.6c4.5,0,7.9,2.8,7.9,7.5C17.5,12.5,14.1,15.3,9.6,15.3z M9.4,2H2v11.5h7.4
		c3.6,0,6.1-1.8,6.1-5.8S13,2,9.4,2z"/>
	<path fill="#FFFFFF" d="M31.7,26.6c-5.2,0-9-3.6-9-8.7V0.2h2v17.4c0,4.3,2.8,7.2,7,7.2s7-2.9,7-7.2V0.2h2v17.7
		C40.7,23,37,26.6,31.7,26.6z"/>
	<path fill="#FFFFFF" d="M50.4,2v10.8h11.8v1.8H50.4v11.9h-2V0.2h15.9V2H50.4z"/>
	<path fill="#FFFFFF" d="M71.5,2v10.8h11.8v1.8H71.5v11.9h-2V0.2h15.9V2H71.5z"/>
	<path fill="#FFFFFF" d="M90,26.3V0.2h4v22.6h12.6v3.6H90z"/>
	<path fill="#FFFFFF" d="M125.3,23.8c-1.8,1.8-4.1,2.8-6.9,2.8c-2.8,0-5.1-1-6.9-2.8c-2.6-2.6-2.5-5.5-2.5-10.5c0-5,0-7.9,2.5-10.5
		c1.8-1.8,4.1-2.8,6.9-2.8c2.8,0,5.1,1,6.9,2.8c2.6,2.6,2.5,5.5,2.5,10.5C127.8,18.3,127.9,21.2,125.3,23.8z M122.3,5.2
		c-0.9-1-2.3-1.6-3.9-1.6c-1.5,0-3,0.6-3.9,1.6c-1.3,1.4-1.5,2.9-1.5,8.1c0,5.2,0.3,6.7,1.5,8.1c0.9,1,2.3,1.6,3.9,1.6
		c1.5,0,3-0.6,3.9-1.6c1.3-1.4,1.5-2.9,1.5-8.1C123.9,8,123.6,6.6,122.3,5.2z"/>
	<path fill="#FFFFFF" d="M142.7,26.6c-5.3,0-9.4-3.6-9.4-9V0.2h4v17.1c0,3.5,2.1,5.7,5.4,5.7s5.4-2.2,5.4-5.7V0.2h4v17.3
		C152,22.9,148,26.6,142.7,26.6z"/>
	<path fill="#FFFFFF" d="M174.4,23.9c-1.7,1.7-4,2.5-6.8,2.5h-9.2V0.2h9.2c2.7,0,5.1,0.8,6.8,2.5c2.8,2.8,2.6,6.6,2.6,10.4
		S177.2,21.1,174.4,23.9z M171.7,5.5c-1.1-1.2-2.6-1.8-4.4-1.8h-4.8v19h4.8c1.9,0,3.3-0.6,4.4-1.8c1.4-1.5,1.4-4.3,1.4-7.9
		C173.1,9.5,173,7,171.7,5.5z"/>
</g>
</svg>
